<svg xmlns="http://www.w3.org/2000/svg" version="1.1" xmlns:xlink="http://www.w3.org/1999/xlink" width="512" height="512" x="0" y="0" viewBox="0 0 173.397 173.397" style="enable-background:new 0 0 512 512" xml:space="preserve" fill-rule="evenodd"><g><g fill-rule="nonzero"><path d="M88.921 62.375a2.54 2.54 0 0 0 0 5.08h25.971a2.54 2.54 0 0 0 0-5.08zM88.921 73.505a2.54 2.54 0 0 0 0 5.08h25.971a2.54 2.54 0 0 0 0-5.08zM139.824 146.903v-5.08H42.678a2.54 2.54 0 0 0 0 5.08z" fill="#A2D5C6" opacity="1" data-original="#000000"></path></g><path d="M48.11 145.686h7.954v13.236a3.988 3.988 0 0 1-3.976 3.976 3.988 3.988 0 0 1-3.977-3.976z" fill="#A2D5C6" opacity="1" data-original="#000000"></path><path d="M28.262 24.4c0-7.646 6.017-13.901 13.37-13.901h12.434v119.964h3.386v-11.095c6.164.739 11.344 5.146 13.096 11.095h3.56c-1.87-7.867-8.603-13.767-16.656-14.557v-90.85c8.053-.79 14.786-6.69 16.657-14.557h54.37c1.871 7.867 8.604 13.767 16.657 14.557v90.85c-8.053.79-14.785 6.69-16.656 14.557h3.56c1.752-5.949 6.932-10.356 13.096-11.095v34.226a4.685 4.685 0 0 1-4.671 4.671H59.45v-5.926h79.758v-15.95H40.873c-3.665 0-6.685 3.02-6.685 6.685v2.58c0 3.665 3.02 6.685 6.685 6.685h3.851v5.926h-3.85c-6.937 0-12.612-5.675-12.612-12.612V24.4zm57.08 61.553c-4.455 0-7.866-2.842-7.866-7.467V62.475c0-4.625 3.411-7.467 7.865-7.467.005-4.107 3.273-7.467 7.38-7.466.163-1.804.685-3.69 2.27-4.27 2.556-.937 5.937-4.763 6.303-7.545.366 2.782 3.747 6.609 6.304 7.545 1.584.58 2.107 2.466 2.27 4.27 4.107 0 7.374 3.359 7.374 7.466 4.457 0 7.87 2.837 7.87 7.467v16.011c0 4.63-3.413 7.467-7.87 7.467 0 4.107-3.267 7.466-7.374 7.466-.163 1.803-.686 3.69-2.27 4.27-2.557.936-5.938 4.763-6.304 7.545-.366-2.782-3.747-6.609-6.303-7.545-1.585-.58-2.107-2.467-2.27-4.27-4.107 0-7.375-3.36-7.38-7.466zM57.451 10.5h13.096c-1.752 5.948-6.932 10.355-13.096 11.095zm74.588 0h8.144c2.723 0 4.952 2.317 4.952 5.148v5.947c-6.164-.74-11.344-5.147-13.096-11.095z" fill="#A2D5C6" opacity="1" data-original="#000000"></path></g></svg>