<svg xmlns="http://www.w3.org/2000/svg" version="1.1" xmlns:xlink="http://www.w3.org/1999/xlink" width="512" height="512" x="0" y="0" viewBox="0 0 512 512" style="enable-background:new 0 0 512 512" xml:space="preserve"><g><path d="M111.485 110.861c-12.078 12.13-31.729 12.13-43.806.001s-12.078-31.866 0-43.996 31.729-12.129 43.806 0 12.077 31.866 0 43.995zM341.069 341.437c-12.078 12.13-31.729 12.13-43.806.001-12.077-12.129-12.078-31.866 0-43.996 12.078-12.13 31.729-12.129 43.806 0s12.078 31.865 0 43.995zM341.07 110.861c-12.078 12.13-31.729 12.129-43.806 0-12.077-12.129-12.078-31.866 0-43.996 12.077-12.129 31.729-12.129 43.806.001s12.077 31.866 0 43.995zM111.485 341.437c-12.077 12.129-31.729 12.129-43.806-.001s-12.078-31.866-.001-43.995c12.078-12.13 31.729-12.129 43.806 0s12.078 31.866.001 43.996zM226.277 63.108c-5.85 5.876-13.629 9.111-21.902 9.112-17.081 0-30.977-13.956-30.977-31.11.001-8.308 3.223-16.121 9.073-21.996 5.85-5.875 13.629-9.111 21.903-9.113 8.274.001 16.053 3.237 21.903 9.112 5.85 5.875 9.072 13.688 9.073 21.999 0 8.308-3.222 16.12-9.073 21.996zM226.277 389.191c-5.85 5.876-13.629 9.111-21.902 9.112-17.08-.001-30.976-13.957-30.977-31.11 0-8.309 3.222-16.121 9.073-21.997 5.851-5.876 13.63-9.112 21.903-9.112 17.08.001 30.976 13.957 30.977 31.111-.001 8.308-3.223 16.12-9.074 21.996zM388.618 226.149c-5.85 5.876-13.629 9.111-21.902 9.112-17.081 0-30.977-13.956-30.977-31.111 0-8.309 3.222-16.121 9.073-21.997 5.85-5.876 13.629-9.111 21.902-9.112 8.275 0 16.054 3.236 21.904 9.112 5.85 5.875 9.072 13.688 9.073 21.999 0 8.309-3.222 16.122-9.073 21.997zM63.936 226.149c-5.85 5.876-13.629 9.111-21.902 9.112-17.08-.001-30.976-13.957-30.977-31.111.001-8.308 3.223-16.121 9.073-21.996 5.851-5.876 13.63-9.112 21.903-9.113 17.079 0 30.975 13.957 30.976 31.11 0 8.31-3.222 16.122-9.073 21.998z" style="stroke-linecap: round; stroke-linejoin: round; stroke-miterlimit: 10;" fill="none" stroke="#A2D5C6" stroke-width="20px" stroke-linecap="round" stroke-linejoin="round" stroke-miterlimit="10" data-original="#000000" opacity="1"></path><path d="M153.52 82.506c-15.749 6.641-33.94-.824-40.552-16.64-6.612-15.816.821-34.086 16.569-40.727s33.94.825 40.552 16.641c6.613 15.816-.82 34.085-16.569 40.726zM279.21 383.164c-15.749 6.641-33.94-.824-40.552-16.64-6.612-15.816.821-34.086 16.569-40.727s33.94.825 40.552 16.641-.82 34.085-16.569 40.726zM366.049 169.719c-15.749 6.641-33.94-.825-40.552-16.641s.821-34.086 16.569-40.727c15.748-6.64 33.939.825 40.551 16.641s-.82 34.087-16.568 40.727zM66.682 295.952c-15.748 6.64-33.939-.825-40.551-16.641s.821-34.086 16.569-40.727c15.749-6.641 33.94.825 40.552 16.641s-.821 34.086-16.57 40.727zM277.769 81.907c-7.629 3.217-16.048 3.257-23.707.115-15.812-6.488-23.419-24.687-16.959-40.566 3.13-7.691 9.055-13.699 16.683-16.915 7.628-3.217 16.048-3.257 23.708-.115 7.659 3.144 13.641 9.094 16.844 16.755s3.243 16.117.114 23.811c-3.129 7.69-9.054 13.698-16.683 16.915zM154.962 383.764c-7.629 3.217-16.048 3.257-23.707.115-15.811-6.489-23.419-24.687-16.959-40.566 3.13-7.692 9.054-13.699 16.683-16.916 7.629-3.217 16.049-3.258 23.708-.115 15.811 6.489 23.419 24.687 16.959 40.566-3.13 7.691-9.055 13.699-16.684 16.916zM366.646 294.504c-7.629 3.217-16.048 3.257-23.707.115-15.812-6.488-23.419-24.687-16.959-40.566 3.13-7.692 9.054-13.699 16.683-16.916 7.629-3.217 16.048-3.257 23.707-.115 7.66 3.144 13.643 9.094 16.845 16.756 3.203 7.661 3.243 16.117.114 23.811-3.13 7.691-9.055 13.698-16.683 16.915zM66.085 171.167c-7.629 3.217-16.048 3.257-23.707.115-15.811-6.489-23.419-24.687-16.959-40.566 3.13-7.691 9.055-13.699 16.683-16.915 7.629-3.217 16.049-3.258 23.708-.115 15.81 6.488 23.418 24.686 16.958 40.566-3.129 7.69-9.054 13.698-16.683 16.915zM494.331 410.606l-84.39 84.754-52.451-52.678c-15.641-15.709-23.342-37.696-20.937-59.78l4.516-41.466 41.288-4.535c21.989-2.415 43.882 5.318 59.523 21.027l52.451 52.678zM403.33 502l97.613-98.034M457.561 457.338l19.859 19.859M482.369 425.458l12.789 12.788M425.681 482.147l12.788 12.788" style="stroke-linecap: round; stroke-linejoin: round; stroke-miterlimit: 10;" fill="none" stroke="#A2D5C6" stroke-width="20px" stroke-linecap="round" stroke-linejoin="round" stroke-miterlimit="10" data-original="#000000" opacity="1"></path></g></svg>