<svg xmlns="http://www.w3.org/2000/svg" version="1.1" xmlns:xlink="http://www.w3.org/1999/xlink" width="512" height="512" x="0" y="0" viewBox="0 0 64 64" style="enable-background:new 0 0 512 512" xml:space="preserve" class=""><g><path d="M21 20.61a28.33 28.33 0 0 1 6.46 2.75 1 1 0 0 0 1.41-.36 1 1 0 0 0-.37-1.36 30.47 30.47 0 0 0-6.92-2.95 1 1 0 0 0-1.23.69 1 1 0 0 0 .65 1.23zM20 25.87a28.17 28.17 0 0 1 6.65 2.28 1 1 0 0 0 .43.1 1 1 0 0 0 .44-1.9 30.1 30.1 0 0 0-7.11-2.44 1 1 0 0 0-.41 2zM36 23.49a1 1 0 0 0 .5-.13 28.33 28.33 0 0 1 6.5-2.75 1 1 0 0 0 .69-1.24 1 1 0 0 0-1.23-.69 30.47 30.47 0 0 0-6.92 2.95 1 1 0 0 0-.41 1.37 1 1 0 0 0 .87.49zM36.47 26.35a1 1 0 0 0 .44 1.9 1 1 0 0 0 .43-.1A28.17 28.17 0 0 1 44 25.87a1 1 0 0 0-.41-2 30.1 30.1 0 0 0-7.12 2.48z" fill="#A2D5C6" opacity="1" data-original="#000000" class=""></path><path d="M53.28 18.31A2.88 2.88 0 0 0 50.47 16h-2.24l-.29-1.69a2.86 2.86 0 0 0-1.27-1.89 2.79 2.79 0 0 0-2.25-.32 42.15 42.15 0 0 0-9.67 4.11c-.94.54-1.85 1.13-2.75 1.74-.9-.61-1.81-1.2-2.75-1.74a42.15 42.15 0 0 0-9.67-4.11 2.79 2.79 0 0 0-2.25.32 2.86 2.86 0 0 0-1.27 1.89L15.77 16h-2.24a2.88 2.88 0 0 0-2.81 2.31L7.38 35a2.88 2.88 0 0 0 2.23 3.37l15.53 3.23-5.76 6.48a2.65 2.65 0 0 1-1.84.93A3.56 3.56 0 0 0 15 50.08a3.48 3.48 0 0 0-1 2.62 3.57 3.57 0 0 0 3.64 3.3h.81a3.57 3.57 0 0 0 1.47-.32l7.4-3.42a11.17 11.17 0 0 1 9.36 0l7.4 3.42a3.57 3.57 0 0 0 1.47.32h.81A3.57 3.57 0 0 0 50 52.7a3.49 3.49 0 0 0-3.5-3.7 2.5 2.5 0 0 1-1.84-.93l-5.76-6.48 15.53-3.23A2.88 2.88 0 0 0 56.62 35zm-17.53-.37A40.31 40.31 0 0 1 45 14a.81.81 0 0 1 1 .64l2.62 15.08-.06.1A35.88 35.88 0 0 0 33 33.52V19.67c.89-.61 1.82-1.19 2.75-1.73zM18 14.66a.81.81 0 0 1 1-.66 40.31 40.31 0 0 1 9.21 3.92c.93.54 1.86 1.12 2.75 1.73v13.87a36.25 36.25 0 0 0-15.09-3.69h-.44l-.06-.1zm18.6 27.43 6.5 7.31a4.45 4.45 0 0 0 3.38 1.6 1.45 1.45 0 0 1 1.1.46 1.53 1.53 0 0 1 .42 1.13A1.6 1.6 0 0 1 46.36 54h-.81a1.52 1.52 0 0 1-.63-.14l-7.4-3.41a13.1 13.1 0 0 0-11 0l-7.4 3.41a1.52 1.52 0 0 1-.63.14h-.81A1.6 1.6 0 0 1 16 52.59a1.53 1.53 0 0 1 .42-1.13 1.41 1.41 0 0 1 1.1-.46 4.48 4.48 0 0 0 3.35-1.6l6.5-7.31 4.41.89.22.02h.19zM54 36.4 32 41l-22-4.6a.88.88 0 0 1-.68-1l3.36-16.7a.87.87 0 0 1 .85-.7h1.89l-2 11.4a2.07 2.07 0 0 0 .47 1.72 2.11 2.11 0 0 0 1.59.72 34.61 34.61 0 0 1 16 4.18H31.69a.8.8 0 0 0 .5 0H32.4a34.49 34.49 0 0 1 16-4.18 2.14 2.14 0 0 0 1.59-.72 2.07 2.07 0 0 0 .47-1.72l-2-11.4h1.89a.87.87 0 0 1 .85.7l3.34 16.68A.88.88 0 0 1 54 36.4z" fill="#A2D5C6" opacity="1" data-original="#000000" class=""></path></g></svg>